<svg xmlns:xlink="http://www.w3.org/1999/xlink" viewBox="0 0 295 33" xmlns="http://www.w3.org/2000/svg" fill-rule="evenodd" clip-rule="evenodd" stroke-linejoin="round" stroke-miterlimit="2" width="295"  height="33" ><g fill-rule="nonzero"><path d="M188.1 9.1c.3-2 2.6-2.9 4.8-2.8 5.8.2 5.2 4.3 5.2 4.3h7c0-5.4-3.5-10.2-12-10.5-6-.2-12.2 3.4-12.2 9.6.1 11.7 18.3 7.6 17.6 13.2-.3 2.8-3 3.2-5.1 3.2-2.9.1-6.1-1.7-5.8-4.8h-7.1c.1.8-.7 10.7 12.8 10.9 6.8.1 12.3-3.9 12.2-9.8-.2-11.9-18.1-8-17.4-13.3zM163.9.4c-8.5 0-14.8 6.7-14.8 16-.1 9.3 5.9 16.3 14.8 16 9 .1 15-7.1 14.8-16 .4-9.5-6.1-16.1-14.8-16zm0 25.5c-5.1 0-7.5-4.8-7.5-9.5.1-4.7 2.3-9.8 7.6-9.7 5.3-.1 7.5 4.8 7.5 9.7-.4 4.5-2.4 9.4-7.6 9.5zm69.6-14.4c.3-5.8-4-10.6-9.5-10.6h-15.4V31h7v-9.6h4.6l4.5 9.6h7.7l-5-10.1c3.9-1.8 5.8-5 6.1-9.4zm-10.7 3.9h-7.4V7.3h7.2c2.1 0 3.5 1.9 3.6 4 .1 1.8-1.3 4.1-3.4 4.1zM244 .9L233 31h7.6l1.8-5.3h11.9l1.8 5.3h7.5L252.6.9H244zm.5 18.6l3.9-10.9v-.2l3.8 11h-7.7v.1zm50.2 11.6L294.6.9h-7.3l-7.6 12.4L272.6.9h-7.8V31h7.6V14.7l7.4 11.9 7.5-12.4v16.9h7.4z" fill="#fd5000"/><path d="M36.5 31h7.3V14.8c0-1.7.3-3.6 1.2-5.2.9-1.5 2.5-2.8 5.1-2.8 2.6.1 4 1.2 4.9 2.8.8 1.5.9 3.3.9 5v16.5H63V14.5c0-1.8.1-3.4 1-5s2.7-2.7 5.2-2.7 3.9 1 4.7 2.5c1 1.6 1.2 3.7 1.2 5.6v16.2h7.1V14.5c0-6.2-.5-8.7-3.3-11.5-2.3-2.4-5.5-3-8-3-3.2 0-5.8 1.2-7.6 2.9-1 .9-1.7 1.9-2.2 2.8-.4-.7-1.2-2-1.8-2.7C57.1.6 54.4 0 52 0c-5.2 0-8.1 3.3-8.8 4.7V.9h-6.7V31zM7.1 16.1c0-4.6 3.3-9.3 9.1-9.3 4.3 0 7.1 2.5 8.3 5.3.6 1.3.9 2.8.8 4.2-.1 1.5-.4 2.9-1.2 4.3-1.4 2.7-4 4.8-8 4.8-6.3-.1-9-5.5-9-9.3zM32.5 1h-7.1v4.4C24.1 3 20.7.1 15.3.1 6.8.1 0 6.6 0 16c0 8.5 5.6 16 15.3 16 4.2 0 8.2-1.7 10.1-5.3v4.4h7.1V1zM119 29.9v.1c0 .7-.4 1-1.1 1h-.1c-.5 0-.8-.4-.9-1 .2-.7.6-1 1.1-1 .6.1 1 .5 1 .9m0-2.5v.2c-.1.6-.4.9-1 .9h-.2c-.4 0-.7-.3-.9-.9 0-.6.4-.9 1.1-1.2.6.2 1 .5 1 1m0-2.6v.2c-.1.6-.4.9-1 .9-.7-.1-1.1-.4-1.1-.9.1-.8.5-1.2 1.1-1.2.6.3 1 .6 1 1m0-2.5v.1c-.1.7-.4 1-1 1h-.1c-.7-.2-1.1-.5-1.1-1 .2-.7.5-1.1 1.1-1.1.7.2 1.1.5 1.1 1m0-2.6v.2c-.1.6-.4.9-1 .9h-.1c-.7-.1-1.1-.5-1.1-1.1 0-.5.4-.9 1.1-1 .7.3 1.1.6 1.1 1m0-2.5v.2c0 .6-.4.9-1.3.9-.6-.3-.8-.6-.8-1 .2-.7.5-1.1 1.1-1.1.6.2 1 .5 1 1m0-2.5v.2c0 .6-.4.9-1.3 1-.6-.3-.8-.6-.8-1 .2-.7.5-1 1.1-1 .6-.1 1 .2 1 .8m0-2.6v.2c0 .5-.4.8-1.1.9-.7-.2-1.1-.5-1.1-1 .2-.7.5-1 1.1-1h.1c.6 0 1 .4 1 .9m0-2.5v.2c0 .5-.4.8-1.1.9-.5 0-.8-.4-1.1-1 .2-.7.5-1 1.1-1h.1c.6 0 1 .3 1 .9m0-2.6v.2c0 .5-.4.9-1.2 1-.6-.2-.9-.6-.9-1.2 0-.5.4-.8 1.1-.9.6.1 1 .4 1 .9m0-2.5v.2c0 .4-.3.8-1 .9-.6 0-.9-.4-1.1-1.1.2-.6.5-1 .9-1h.2c.6.1 1 .5 1 1m0-2.6v.2c0 .4-.3.7-1 .9-.6 0-.9-.4-1.1-1.2.2-.6.5-.9.9-.9h.2c.6.2 1 .5 1 1m-2.6 28v.2c-.1.7-.4 1-.9 1h-.2c-.5 0-.8-.3-1-1 0-.6.4-.9 1.2-1.1.6.1.9.5.9.9m0-2.5v.2c-.1.6-.4.9-.9.9h-.2c-.5 0-.8-.3-1-.9.2-.7.5-1.2 1.2-1.2.6.2.9.5.9 1m0-2.6v.2c-.1.6-.4.9-.9.9-.7-.1-1.2-.5-1.2-1.2.2-.6.6-.9 1.2-.9.6.3.9.6.9 1m0-2.5v.1c-.1.7-.4 1-.9 1-.7-.1-1.2-.5-1.2-1.2 0-.5.4-.8 1.2-.9.6.2.9.5.9 1m0-2.6v.2c-.1.6-.4.9-.9.9h-.1c-.6 0-.9-.4-1.1-1.1 0-.5.4-.8 1.2-1 .6.3.9.6.9 1m0-2.5v.2c0 .6-.4.9-1.2.9-.6-.2-.9-.6-.9-1.2.2-.6.6-.9 1.1-.9.7.2 1 .5 1 1m0-2.5v.2c0 .6-.4.9-1.2 1-.6-.2-.9-.6-.9-1.2.2-.6.6-.9 1.1-.9.7.1 1 .4 1 .9m0-2.6v.2c0 .5-.3.8-1.1.9-.6 0-.9-.4-1.1-1.1.2-.6.6-1 1.1-1h.1c.7.1 1 .5 1 1m0-2.5v.2c0 .5-.3.8-1.1.9-.6 0-.9-.4-1.1-1.2 0-.5.4-.8 1.2-.9.7.1 1 .4 1 1m0-2.6v.2c0 .5-.4.9-1.1 1-.6-.2-1-.6-1-1.2 0-.5.4-.8 1.2-.9.6.1.9.4.9.9m0-2.5v.2c0 .4-.3.8-.9.9-.7-.1-1.2-.5-1.2-1.1.2-.6.5-1 1-1h.2c.6.1.9.5.9 1m0-2.6v.2c0 .4-.3.7-.9.9-.6 0-.9-.4-1.2-1.2.2-.6.5-.9 1-.9h.2c.6.2.9.5.9 1m-2.5 17.8v.2c0 .5-.3.8-.9.9-.8-.1-1.2-.4-1.2-1.1 0-.5.4-.8 1.2-1 .6.3.9.6.9 1m0-2.5v.2c0 .6-.4.9-1.2.9-.6-.2-.9-.6-.9-1.2.2-.6.6-.9 1.1-.9.6.2 1 .5 1 1m0-2.5v.2c0 .6-.4.9-1.2 1-.6-.2-.9-.6-.9-1.2.2-.6.6-.9 1.1-.9.6.1 1 .4 1 .9m0-2.6v.2c0 .5-.4.8-1.1.9-.6 0-.9-.4-1.1-1.1 0-.5.4-.9 1.2-1 .5 0 .8.4 1 1m-1-11.1c.6.1.9.4.9.9-.1.8-.4 1.2-1.1 1.2-.7-.2-1.1-.5-1.1-1.2.2-.6.5-.9.9-.9h.4zm0 2.5c.6.1.9.5.9 1-.1.7-.4 1.1-.9 1.1-.8-.1-1.2-.5-1.2-1.1.2-.6.5-1 .9-1h.3zm0 2.6c.6.1.9.4.9.9-.1.8-.5 1.2-1.2 1.2-.5 0-.8-.4-.9-1.2.1-.5.4-.8 1.2-.9m0 2.5c.6.1.9.4.9.9-.1.8-.4 1.2-1.1 1.2-.6 0-.9-.4-1.1-1.2.2-.5.5-.8 1.3-.9m1 13.8c-.1.7-.4 1-.9 1-.8-.1-1.2-.5-1.2-1.2 0-.5.4-.8 1.2-.9.6.2.9.6.9 1.1m-1 1.4c.5 0 .8.4.9 1.2-.1.6-.4.9-.9.9-.8-.1-1.2-.5-1.2-1.2.1-.4.4-.7 1.2-.9m0 2.6c.5 0 .8.4.9 1.2-.1.6-.4.9-.9.9h-.2c-.5 0-.8-.4-.9-1.1.2-.7.5-1 1.1-1m1 3.6c-.1.7-.4 1-.9 1h-.2c-.5 0-.8-.4-.9-1 0-.5.4-.8 1.1-1 .4-.1.8.3.9 1m-2.6-23v.2c0 .5-.4.9-1.2 1-.6-.2-.9-.6-.9-1.2 0-.5.4-.8 1.1-.9.7.1 1 .4 1 .9m0-2.5v.2c0 .4-.3.8-1 .9-.6 0-.9-.4-1.1-1.1.2-.6.5-1 .9-1h.2c.7.1 1 .5 1 1m0-2.6v.2c0 .4-.3.7-1 .9-.6 0-.9-.4-1.1-1.2.2-.6.5-.9.9-.9h.2c.7.2 1 .5 1 1M108.9 7v.2c0 .5-.4.9-1.2 1-.6-.2-.9-.6-.9-1.2 0-.5.4-.8 1.2-.9.6.1.9.4.9.9m0-2.5v.2c0 .4-.3.8-.9.9-.6 0-1-.4-1.2-1.1.2-.6.5-1 .9-1h.2c.7.1 1 .5 1 1m0-2.6v.2c0 .4-.3.7-.9.9-.6 0-1-.4-1.2-1.2.2-.6.5-.9.9-.9h.2c.7.2 1 .5 1 1m-2.5 25.5v.2c-.1.6-.4.9-1 .9h-.2c-.4 0-.7-.3-.9-.9.1-.7.5-1.2 1.1-1.2.6.2 1 .5 1 1m0-2.6v.2c-.1.6-.4.9-1 .9-.7-.1-1.1-.5-1.1-1.2.2-.6.6-.9 1.1-.9.6.3 1 .6 1 1m0-2.5v.1c-.1.7-.4 1-1 1-.7-.1-1.1-.5-1.1-1.2 0-.5.4-.8 1.1-.9.6.2 1 .5 1 1m0-2.6v.2c-.1.6-.4.9-1 .9h-.1c-.6 0-.9-.4-1.1-1.1 0-.5.4-.8 1.1-1 .7.3 1.1.6 1.1 1m0-2.5v.2c0 .6-.4.9-1.3.9-.6-.2-.8-.6-.8-1.2.2-.6.5-.9 1.1-.9.6.2 1 .5 1 1m0-2.5v.2c0 .6-.4.9-1.3 1-.6-.2-.8-.6-.8-1.2.2-.6.5-.9 1.1-.9.6.1 1 .4 1 .9m0-2.6v.2c0 .5-.4.8-1.1.9-.6 0-.9-.4-1.1-1.1.2-.6.5-1 1.1-1h.1c.6.1 1 .5 1 1m0-2.5v.2c0 .5-.4.8-1.1.9-.6 0-.9-.4-1.1-1.2 0-.5.4-.8 1.1-.9.7.1 1.1.4 1.1 1m0-2.6v.2c0 .5-.4.9-1.2 1-.6-.2-.9-.6-.9-1.2 0-.5.4-.8 1.1-.9.6.1 1 .4 1 .9m0-2.5v.2c0 .4-.3.8-1 .9-.7-.1-1.1-.5-1.1-1.1.2-.6.5-1 .9-1h.2c.6.1 1 .5 1 1m0-2.6v.2c0 .4-.3.7-1 .9-.6 0-.9-.4-1.1-1.2.2-.6.5-.9.9-.9h.2c.6.2 1 .5 1 1m-2.6 17.8v.2c0 .5-.3.8-.9.9-.7-.1-1.2-.4-1.2-1.1 0-.5.4-.8 1.2-1 .6.3.9.6.9 1m0-2.5v.2c0 .6-.4.9-1.2.9-.6-.2-.9-.6-.9-1.2.2-.6.6-.9 1.1-.9.7.2 1 .5 1 1m0-2.5v.2c0 .6-.4.9-1.2 1-.6-.2-.9-.6-.9-1.2.2-.6.6-.9 1.1-.9.7.1 1 .4 1 .9m0-2.6v.2c0 .5-.3.8-1.1.9-.6 0-.9-.4-1.1-1.1 0-.5.4-.9 1.2-1 .5 0 .8.4 1 1m-1-11.1c.6.1.9.4.9.9-.1.8-.4 1.2-1.1 1.2-.7-.2-1.1-.5-1.1-1.2.2-.6.5-.9 1-.9h.3zm0 2.5c.6.1.9.5.9 1-.1.7-.4 1.1-.9 1.1-.7-.1-1.2-.5-1.2-1.1.2-.6.5-1 1-1h.2zm0 2.6c.6.1.9.4.9.9-.1.8-.4 1.2-1.1 1.2-.5 0-.8-.4-1-1.2.1-.5.5-.8 1.2-.9m0 2.5c.6.1.9.4.9.9-.1.8-.4 1.2-1.1 1.2-.6 0-.9-.4-1.1-1.2.2-.5.6-.8 1.3-.9m1 13.8c-.1.7-.4 1-.9 1-.7-.1-1.2-.5-1.2-1.2 0-.5.4-.8 1.3-.9.5.2.8.6.8 1.1m-1 1.4c.5 0 .9.4.9 1.2-.1.6-.4.9-.9.9-.7-.1-1.2-.5-1.2-1.2.1-.4.5-.7 1.2-.9m0 2.6c.5 0 .9.4.9 1.2-.1.6-.4.9-.9.9h-.2c-.5 0-.8-.4-1-1.1.3-.7.7-1 1.2-1m1 3.6c-.1.7-.4 1-.9 1h-.2c-.5 0-.8-.4-1-1 0-.5.4-.8 1.1-1 .6-.1.9.3 1 1m-2.5-.1v.1c0 .7-.4 1-1.1 1h-.1c-.5 0-.8-.4-.9-1 .3-.7.6-1 1.2-1 .6.1.9.5.9.9m0-2.5v.2c-.1.6-.4.9-.9.9h-.3c-.4 0-.7-.3-.9-.9 0-.6.4-.9 1.2-1.2.6.2.9.5.9 1m0-2.6v.2c-.1.6-.4.9-.9.9-.8-.1-1.2-.4-1.2-.9.2-.8.5-1.2 1.2-1.2.6.3.9.6.9 1m0-2.5v.1c-.1.7-.4 1-.9 1h-.1c-.7-.2-1.1-.5-1.1-1 .2-.7.6-1.1 1.2-1.1.6.2.9.5.9 1m0-2.6v.2c-.1.6-.4.9-.9.9h-.1c-.7-.1-1.1-.5-1.1-1.1 0-.5.4-.9 1.2-1 .6.3.9.6.9 1m0-2.5v.2c0 .6-.4.9-1.2.9-.6-.3-.9-.6-.9-1 .2-.7.5-1.1 1.1-1.1.6.2 1 .5 1 1m0-2.5v.2c0 .6-.4.9-1.2 1-.6-.3-.9-.6-.9-1 .2-.7.5-1 1.1-1 .6-.1 1 .2 1 .8m0-2.6v.2c0 .5-.4.8-1.1.9-.7-.2-1.1-.5-1.1-1 .2-.7.5-1 1.1-1h.1c.7 0 1 .4 1 .9m0-2.5v.2c0 .5-.4.8-1.1.9-.5 0-.8-.4-1.1-1 .2-.7.5-1 1.1-1h.1c.7 0 1 .3 1 .9m0-2.6v.2c0 .5-.4.9-1.2 1-.6-.2-.9-.6-.9-1.2 0-.5.4-.8 1.2-.9.6.1.9.4.9.9m0-2.5v.2c0 .4-.3.8-.9.9-.6 0-.9-.4-1.2-1.1.2-.6.5-1 .9-1h.2c.7.1 1 .5 1 1m0-2.6v.2c0 .4-.3.7-.9.9-.6 0-.9-.4-1.2-1.2.2-.6.5-.9.9-.9h.2c.7.2 1 .5 1 1m-3.6 21.9c.6 0 .9.4 1 1.2-.1.6-.4.9-1 .9-.7-.1-1.1-.5-1.1-1.2 0-.4.4-.7 1.1-.9m0 2.6c.6 0 .9.4 1 1.2-.1.6-.4.9-1 .9h-.2c-.5 0-.8-.4-.9-1.1.2-.7.6-1 1.1-1m1 3.6c-.1.7-.4 1-1 1h-.2c-.5 0-.8-.4-.9-1 0-.5.3-.8 1.1-1 .5-.1.9.3 1 1m-3.4-6.2c.5 0 .8.4.9 1.2-.1.6-.4.9-.9.9-.8-.1-1.2-.5-1.2-1.2 0-.4.4-.7 1.2-.9m0 2.6c.5 0 .8.4.9 1.2-.1.6-.4.9-.9.9h-.2c-.5 0-.8-.4-.9-1.1.1-.7.5-1 1.1-1m.9 3.6c-.1.7-.4 1-.9 1h-.2c-.5 0-.8-.4-.9-1 0-.5.4-.8 1.1-1 .5-.1.8.3.9 1m-2.5-10.3v.2c0 .5-.4.8-1 .9-.7-.1-1.1-.4-1.1-1.1 0-.5.4-.8 1.1-1 .6.3 1 .6 1 1m0-2.5v.2c0 .6-.4.9-1.3.9-.6-.2-.8-.6-.8-1.2.2-.6.5-.9 1.1-.9.6.2 1 .5 1 1m0-2.5v.2c0 .6-.4.9-1.3 1-.6-.2-.8-.6-.8-1.2.2-.6.5-.9 1.1-.9.6.1 1 .4 1 .9m0-2.6v.2c0 .5-.4.8-1.1.9-.6 0-.9-.4-1.1-1.1 0-.5.4-.9 1.1-1 .6 0 .9.4 1.1 1M92.7 1c.6.1 1 .4 1 .9-.1.8-.5 1.2-1 1.2-.7-.2-1.1-.5-1.1-1.2.2-.6.5-.9.9-.9h.2zm0 2.5c.6.1 1 .5 1 1-.1.7-.4 1.1-1 1.1-.7-.1-1.1-.5-1.1-1.1.2-.6.5-1 .9-1h.2zm0 2.6c.6.1 1 .4 1 .9-.1.8-.5 1.2-1.2 1.2-.5 0-.8-.4-.9-1.2 0-.5.4-.8 1.1-.9m0 2.5c.6.1 1 .4 1 .9-.1.8-.5 1.2-1 1.2-.6 0-.9-.4-1.1-1.2 0-.5.4-.8 1.1-.9m1 13.8c-.1.7-.4 1-1 1-.7-.1-1.1-.5-1.1-1.2 0-.5.4-.8 1.2-.9.6.2.9.6.9 1.1m-1 1.4c.6 0 .9.4 1 1.2-.1.6-.4.9-1 .9-.7-.1-1.1-.5-1.1-1.2 0-.4.4-.7 1.1-.9m0 2.6c.6 0 .9.4 1 1.2-.1.6-.4.9-1 .9h-.2c-.5 0-.8-.4-.9-1.1.2-.7.6-1 1.1-1m1 3.6c-.1.7-.4 1-1 1h-.2c-.5 0-.8-.4-.9-1 0-.5.3-.8 1.1-1 .5-.1.9.3 1 1m-2.6-.1v.1c0 .7-.3 1-1.1 1h-.1c-.5 0-.8-.4-1-1 .3-.7.6-1 1.2-1 .7.1 1 .5 1 .9m0-2.5v.2c-.1.6-.4.9-.9.9H90c-.5 0-.8-.3-1-.9 0-.6.4-.9 1.2-1.2.6.2.9.5.9 1m0-2.6v.2c-.1.6-.4.9-.9.9-.7-.1-1.2-.4-1.2-.9.2-.8.5-1.2 1.2-1.2.6.3.9.6.9 1m0-2.5v.1c-.1.7-.4 1-.9 1h-.1c-.7-.2-1.1-.5-1.1-1 .2-.7.6-1.1 1.2-1.1.6.2.9.5.9 1m0-2.6v.2c-.1.6-.4.9-.9.9h-.1c-.7-.1-1.1-.5-1.1-1.1 0-.5.4-.9 1.2-1 .6.3.9.6.9 1m0-2.5v.2c0 .6-.4.9-1.2.9-.6-.3-.9-.6-.9-1 .2-.7.5-1.1 1.1-1.1.7.2 1 .5 1 1m0-2.5v.2c0 .6-.4.9-1.2 1-.6-.3-.9-.6-.9-1 .2-.7.5-1 1.1-1 .7-.1 1 .2 1 .8m0-2.6v.2c0 .5-.3.8-1.1.9-.7-.2-1.1-.5-1.1-1 .2-.7.5-1 1.1-1h.1c.7 0 1 .4 1 .9m0-2.5v.2c0 .5-.3.8-1.1.9-.5 0-.8-.4-1.1-1 .2-.7.5-1 1.1-1h.1c.7 0 1 .3 1 .9m0-2.6v.2c0 .5-.4.9-1.1 1-.7-.2-1-.6-1-1.2 0-.5.4-.8 1.2-.9.6.1.9.4.9.9m0-2.5v.2c0 .4-.3.8-.9.9-.6 0-.9-.4-1.2-1.1.2-.6.5-1 1-1h.2c.6.1.9.5.9 1m0-2.6v.2c0 .4-.3.7-.9.9-.6 0-.9-.4-1.2-1.2.2-.6.5-.9 1-.9h.2c.6.2.9.5.9 1m-2.5 25.5v.2c-.1.6-.4.9-.9.9h-.2c-.4 0-.7-.3-.9-.9.1-.7.5-1.2 1.2-1.2.5.2.8.5.8 1m0-2.6v.2c-.1.6-.4.9-.9.9-.8-.1-1.2-.5-1.2-1.2.2-.6.6-.9 1.2-.9.6.3.9.6.9 1m0-2.5v.1c-.1.7-.4 1-.9 1-.8-.1-1.2-.5-1.2-1.2 0-.5.4-.8 1.2-.9.6.2.9.5.9 1m0-2.6v.2c-.1.6-.4.9-.9.9h-.1c-.6 0-.9-.4-1.1-1.1 0-.5.4-.8 1.2-1 .6.3.9.6.9 1m0-2.5v.2c0 .6-.4.9-1.2.9-.6-.2-.9-.6-.9-1.2.2-.6.5-.9 1.1-.9.6.2 1 .5 1 1m0-2.5v.2c0 .6-.4.9-1.2 1-.6-.2-.9-.6-.9-1.2.2-.6.5-.9 1.1-.9.6.1 1 .4 1 .9m0-2.6v.2c0 .5-.4.8-1.1.9-.6 0-.9-.4-1.1-1.1.2-.6.5-1 1.1-1h.1c.7.1 1 .5 1 1m0-2.5v.2c0 .5-.4.8-1.1.9-.6 0-.9-.4-1.1-1.2 0-.5.4-.8 1.2-.9.7.1 1 .4 1 1m0-2.6v.2c0 .5-.4.9-1.2 1-.6-.2-.9-.6-.9-1.2 0-.5.4-.8 1.2-.9.6.1.9.4.9.9m0-2.5v.2c0 .4-.3.8-.9.9-.8-.1-1.2-.5-1.2-1.1.2-.6.5-1 .9-1h.2c.7.1 1 .5 1 1m.1-2.4c0 .6-.5 1.1-1.1 1.1-.6 0-1.1-.5-1.1-1.1 0-.6.5-1 1.1-1 .6-.1 1.1.3 1.1 1" fill="#46555f"/></g></svg>